<svg xmlns="http://www.w3.org/2000/svg" xmlns:xlink="http://www.w3.org/1999/xlink" width="2800" height="2800" viewBox="0 0 2800 2800"><defs><clipPath id="a"><rect width="400" height="400" transform="translate(1200)"/></clipPath><clipPath id="b"><rect width="400" height="400"/></clipPath><clipPath id="c"><rect width="400" height="400" transform="translate(1600 400)"/></clipPath><clipPath id="e"><rect width="400" height="400" transform="translate(1600 2000)"/></clipPath><clipPath id="f"><rect width="258.997" height="258.997"/></clipPath><clipPath id="i"><rect width="400" height="400" transform="translate(800 2000)"/></clipPath><clipPath id="k"><rect width="400" height="400" transform="translate(2000 800)"/></clipPath><clipPath id="m"><rect width="400" height="400" transform="translate(400 800)"/></clipPath><clipPath id="o"><rect width="400" height="400" transform="translate(2000 1600)"/></clipPath><clipPath id="q"><rect width="400" height="400" transform="translate(400 1600)"/></clipPath><clipPath id="s"><rect width="400" height="400" transform="translate(1200 2400)"/></clipPath><clipPath id="u"><rect width="400" height="400" transform="translate(0 1200)"/></clipPath><clipPath id="w"><rect width="400" height="400" transform="translate(2400 1200)"/></clipPath><clipPath id="z"><rect width="2800" height="2800"/></clipPath></defs><g id="y" clip-path="url(#z)"><g clip-path="url(#a)"><g transform="translate(1200)" clip-path="url(#b)"><text transform="translate(150.333 111)" font-size="7" font-family="HelveticaNeue, Helvetica Neue"><tspan x="0" y="0">J</tspan></text><path d="M-114.022-29.159q0,84.872,46.113,126.872Q-21.921,139.962,62.2,139.838h1.5q83.377,0,129.863-43.122,46.361-43,46.361-125.875v-194.67H-64.918v98.207H127.509v96.463c0,42.872-21.187,64.308-63.81,64.308H62.2c-42.623,0-63.81-21.436-63.81-64.308Z" transform="translate(137.022 242.162)"/></g></g><g transform="translate(742.359 -1058.41) rotate(30)" clip-path="url(#c)"><g transform="translate(1600 400)" clip-path="url(#b)"><path d="M-97.973,49.282A171.238,171.238,0,0,0-28.82,113.531c29.18,14.959,62.042,22.561,98.58,22.561h1.471c37.274,0,70.624-7.6,99.806-22.561a166.279,166.279,0,0,0,68.417-64.249c16.43-27.71,24.522-59.344,24.522-95.147,0-35.557-8.092-67.191-24.522-94.9s-39.236-49.046-68.418-64.25c-29.182-14.959-62.533-22.561-99.806-22.561H69.76c-37.274,0-70.624,7.6-99.806,22.561-29.182,15.2-51.987,36.538-68.417,64.248s-24.767,59.344-24.767,94.9S-114.893,21.572-97.973,49.282Zm87.3-95.147c0-22.806,7.6-41.688,22.561-56.647,14.959-14.713,34.086-22.07,57.873-22.07h1.471q35.68,0,58.118,22.07c14.959,14.959,22.315,33.841,22.315,56.647,0,23.3-7.357,42.178-22.315,56.892S95.019,33.1,71.232,33.1H69.76q-35.68,0-58.118-22.07C-3.317-3.686-10.673-22.567-10.673-45.864Z" transform="translate(129.564 245.909)"/></g></g><g transform="translate(4660.051 3444.461) rotate(150)" clip-path="url(#e)"><g transform="translate(1670.501 2070.501)" clip-path="url(#f)"><circle cx="58.814" cy="58.814" r="58.814" transform="translate(70.793 70.793)"/></g></g><g transform="translate(-1859.641 -644.051) rotate(-30)" clip-path="url(#e)"><g transform="translate(1670.501 2070.501)" clip-path="url(#f)"><circle cx="58.814" cy="58.814" r="58.814" transform="translate(70.793 70.793)"/></g></g><g transform="translate(565.23 4844.461) rotate(-150)" clip-path="url(#i)"><g transform="translate(800 2000)" clip-path="url(#b)"><path d="M8.431,139.838V56.656H73.353l49.453,83.182H255.186L183.417,31.3C222.979,5.935,245.8-36.163,245.8-83.587a136.93,136.93,0,0,0-42.1-99.159C177.33-208.1,137.261-223.829,91.612-223.829H-106.452V139.838Zm0-263.24H91.612a39.07,39.07,0,0,1,28.15,11.412,38.466,38.466,0,0,1,11.667,28.4,38.463,38.463,0,0,1-11.667,28.4,38.306,38.306,0,0,1-28.15,11.667H8.431Z" transform="translate(125.785 242.162)"/></g></g><g transform="translate(2209.23 -1599.051) rotate(60)" clip-path="url(#k)"><g transform="translate(2000 800)" clip-path="url(#b)"><path d="M8.431,139.838V56.656H73.353l49.453,83.182H255.186L183.417,31.3C222.979,5.935,245.8-36.163,245.8-83.587a136.93,136.93,0,0,0-42.1-99.159C177.33-208.1,137.261-223.829,91.612-223.829H-106.452V139.838Zm0-263.24H91.612a39.07,39.07,0,0,1,28.15,11.412,38.466,38.466,0,0,1,11.667,28.4,38.463,38.463,0,0,1-11.667,28.4,38.306,38.306,0,0,1-28.15,11.667H8.431Z" transform="translate(125.785 242.162)"/></g></g><g transform="translate(-808.82 825.82) rotate(-60)" clip-path="url(#m)"><g transform="translate(400 800)" clip-path="url(#b)"><path d="M224.014,139.838V39.664H56.382L224.014-123.4V-223.829h-323.6V-123.4H67.794L-99.584,39.664V139.838Z" transform="translate(137.917 242.162)"/></g></g><g transform="translate(5102.051 988.949) rotate(120)" clip-path="url(#o)"><g transform="translate(2000 1600)" clip-path="url(#b)"><path d="M20.5,3.146V139.838H134.625V4.16L280.191-223.829H148.825L77.564-106.411,6.555-223.829H-124.558Z" transform="translate(122.224 242.162)"/></g></g><g transform="translate(-901.641 3413.82) rotate(-120)" clip-path="url(#q)"><g transform="translate(400 1600)" clip-path="url(#b)"><path d="M-.037,139.838V-51.379l140.75,191.217H252.805V-223.829H140.713V-37.177L-.037-223.829H-112.383V139.838Z" transform="translate(129.716 242.162)"/></g></g><g transform="translate(2800 5200) rotate(180)" clip-path="url(#s)"><g transform="translate(1200 2400)" clip-path="url(#b)"><path d="M-7.685,139.838,7.531,82.271H146l15.216,57.567H276.857L180.995-223.829H-26.959l-96.116,363.667ZM60.281-123.4H92.489L119.623-19.171H33.4Z" transform="translate(123.075 242.162)"/></g></g><g transform="translate(-1200 1600) rotate(-90)" clip-path="url(#u)"><g transform="translate(0 1200)" clip-path="url(#b)"><path d="M11.571-123.4v263.24H125.692V-123.4H246.661V-223.829H-109.651V-123.4Z" transform="translate(131.651 242.162)"/></g></g><g transform="translate(4000 -1200) rotate(90)" clip-path="url(#w)"><g transform="translate(2400 1200)" clip-path="url(#b)"><path d="M52.4,139.838c38.04,0,72.023-7.354,102.2-21.81a168.891,168.891,0,0,0,71.517-63.654c17.5-27.643,26.375-59.85,26.375-96.369,0-36.772-8.876-68.98-26.375-96.876a169.989,169.989,0,0,0-71.516-63.4c-30.179-14.455-64.162-21.557-102.2-21.557H-107.623V139.838ZM6.246-123.91H52.4c24.092,0,43.873,7.862,59.85,23.331C128.227-84.855,136.089-65.328,136.089-42c0,23.078-7.862,42.605-23.839,58.075S76.494,39.664,52.4,40.172H6.246Z" transform="translate(127.622 242.162)"/></g></g></g></svg>